<svg width="60" height="39" viewBox="0 0 60 39" fill="none" xmlns="http://www.w3.org/2000/svg">
<path d="M34.3673 18.7751V18.7738C34.3629 17.0604 34.3128 15.2894 34.0388 13.7163C33.7661 12.1513 33.2604 10.7101 32.2881 9.71791L32.288 9.71778C31.4474 8.86053 30.2729 8.362 28.982 8.06475C27.6878 7.76672 26.2276 7.66022 24.7685 7.62357L24.7685 7.62341H24.7559H10.0232C9.40149 7.62341 8.89388 8.12978 8.89388 8.74912V38.3743C8.89388 38.4352 8.83659 38.5 8.76095 38.5H0.627567C0.557474 38.5 0.5 38.4407 0.5 38.3743V0.629353C0.5 0.556513 0.558408 0.5 0.627567 0.5H24.0926C27.1579 0.5 30.2564 0.572062 32.9752 1.03804C35.7022 1.50543 37.9702 2.3572 39.4412 3.85541C40.891 5.33204 41.7289 7.58072 42.1968 10.2823C42.6634 12.9759 42.7509 16.0474 42.7573 19.1076L42.7576 38.3743C42.7576 38.438 42.7012 38.5 42.6265 38.5H34.5003C34.4238 38.5 34.3673 38.4361 34.3673 38.3743V18.7751ZM59.3689 0.5C59.4408 0.5 59.5 0.561121 59.5 0.629353V38.3743C59.5 38.4031 59.4882 38.4342 59.4618 38.4603C59.4354 38.4865 59.4021 38.5 59.3689 38.5H51.2391C51.1644 38.5 51.1079 38.4379 51.1079 38.3743V0.629353C51.1079 0.5593 51.1653 0.5 51.2391 0.5H59.3689ZM25.9128 15.5318C25.9811 15.5318 26.0385 15.5892 26.0385 15.6575V38.3743C26.0385 38.4417 25.9801 38.5 25.9128 38.5H17.3735C17.2961 38.5 17.2406 38.437 17.2406 38.3743V15.6575C17.2406 15.5939 17.2952 15.5318 17.3735 15.5318H25.9128Z" fill="#F1F1F1" stroke="black"/>
</svg>
