<svg width="54" height="54" viewBox="0 0 54 54" fill="none" xmlns="http://www.w3.org/2000/svg">
<rect width="54" height="54" rx="27" fill="#F1F1F1"/>
<path fill-rule="evenodd" clip-rule="evenodd" d="M18.9483 21H35.0513C35.5733 21 36.0003 21.427 36.0003 21.949V22.051C36.0003 22.573 35.5733 23 35.0513 23H18.9483C18.4263 23 18.0003 22.573 18.0003 22.051V21.949C18.0003 21.427 18.4263 21 18.9483 21ZM35.0513 26H18.9483C18.4263 26 18.0003 26.427 18.0003 26.949V27.051C18.0003 27.573 18.4263 28 18.9483 28H35.0513C35.5733 28 36.0003 27.573 36.0003 27.051V26.949C36.0003 26.427 35.5733 26 35.0513 26ZM35.0513 31H18.9483C18.4263 31 18.0003 31.427 18.0003 31.949V32.051C18.0003 32.573 18.4263 33 18.9483 33H35.0513C35.5733 33 36.0003 32.573 36.0003 32.051V31.949C36.0003 31.427 35.5733 31 35.0513 31Z" fill="#0D1C2E"/>
<mask id="mask0_2_780" style="mask-type:alpha" maskUnits="userSpaceOnUse" x="18" y="21" width="19" height="12">
<path fill-rule="evenodd" clip-rule="evenodd" d="M18.9483 21H35.0513C35.5733 21 36.0003 21.427 36.0003 21.949V22.051C36.0003 22.573 35.5733 23 35.0513 23H18.9483C18.4263 23 18.0003 22.573 18.0003 22.051V21.949C18.0003 21.427 18.4263 21 18.9483 21ZM35.0513 26H18.9483C18.4263 26 18.0003 26.427 18.0003 26.949V27.051C18.0003 27.573 18.4263 28 18.9483 28H35.0513C35.5733 28 36.0003 27.573 36.0003 27.051V26.949C36.0003 26.427 35.5733 26 35.0513 26ZM35.0513 31H18.9483C18.4263 31 18.0003 31.427 18.0003 31.949V32.051C18.0003 32.573 18.4263 33 18.9483 33H35.0513C35.5733 33 36.0003 32.573 36.0003 32.051V31.949C36.0003 31.427 35.5733 31 35.0513 31Z" fill="white"/>
</mask>
<g mask="url(#mask0_2_780)">
<rect x="15" y="15" width="24" height="24" fill="#0D1C2E"/>
</g>
</svg>
